<mxfile host="app.diagrams.net" modified="2024-04-27T22:07:53.616Z" agent="Mozilla/5.0 (Windows NT 10.0; Win64; x64) AppleWebKit/537.36 (KHTML, like Gecko) Chrome/124.0.0.0 Safari/537.36" etag="Uya2m4Ltm-49U3sflYdz" version="24.3.1" type="github">
  <diagram name="Use Case" id="37OjQckd6P2DxGayJbFy">
    <mxGraphModel dx="1434" dy="784" grid="1" gridSize="10" guides="1" tooltips="1" connect="1" arrows="1" fold="1" page="1" pageScale="1" pageWidth="827" pageHeight="1169" math="0" shadow="0">
      <root>
        <mxCell id="0" />
        <mxCell id="1" parent="0" />
        <mxCell id="QZHb6bbb9g_fA5QFOH83-3" value="" style="rounded=0;whiteSpace=wrap;html=1;" vertex="1" parent="1">
          <mxGeometry x="180" y="80" width="540" height="640" as="geometry" />
        </mxCell>
        <mxCell id="QZHb6bbb9g_fA5QFOH83-6" style="rounded=0;orthogonalLoop=1;jettySize=auto;html=1;endArrow=none;endFill=0;" edge="1" parent="1" source="QZHb6bbb9g_fA5QFOH83-2" target="QZHb6bbb9g_fA5QFOH83-4">
          <mxGeometry relative="1" as="geometry" />
        </mxCell>
        <mxCell id="QZHb6bbb9g_fA5QFOH83-2" value="Admin" style="shape=umlActor;verticalLabelPosition=bottom;verticalAlign=top;html=1;outlineConnect=0;" vertex="1" parent="1">
          <mxGeometry x="750" y="90" width="40" height="70" as="geometry" />
        </mxCell>
        <mxCell id="QZHb6bbb9g_fA5QFOH83-11" style="rounded=0;orthogonalLoop=1;jettySize=auto;html=1;entryX=0;entryY=0.5;entryDx=0;entryDy=0;endArrow=none;endFill=0;" edge="1" parent="1" source="QZHb6bbb9g_fA5QFOH83-1" target="QZHb6bbb9g_fA5QFOH83-8">
          <mxGeometry relative="1" as="geometry" />
        </mxCell>
        <mxCell id="QZHb6bbb9g_fA5QFOH83-12" style="rounded=0;orthogonalLoop=1;jettySize=auto;html=1;entryX=0;entryY=0.5;entryDx=0;entryDy=0;endArrow=none;endFill=0;" edge="1" parent="1" source="QZHb6bbb9g_fA5QFOH83-1" target="QZHb6bbb9g_fA5QFOH83-9">
          <mxGeometry relative="1" as="geometry" />
        </mxCell>
        <mxCell id="QZHb6bbb9g_fA5QFOH83-13" style="rounded=0;orthogonalLoop=1;jettySize=auto;html=1;entryX=0;entryY=0.5;entryDx=0;entryDy=0;endArrow=none;endFill=0;" edge="1" parent="1" source="QZHb6bbb9g_fA5QFOH83-1" target="QZHb6bbb9g_fA5QFOH83-10">
          <mxGeometry relative="1" as="geometry" />
        </mxCell>
        <mxCell id="QZHb6bbb9g_fA5QFOH83-1" value="User" style="shape=umlActor;verticalLabelPosition=bottom;verticalAlign=top;html=1;outlineConnect=0;" vertex="1" parent="1">
          <mxGeometry x="110" y="90" width="40" height="70" as="geometry" />
        </mxCell>
        <mxCell id="QZHb6bbb9g_fA5QFOH83-4" value="Login" style="ellipse;whiteSpace=wrap;html=1;" vertex="1" parent="1">
          <mxGeometry x="400" y="125" width="90" height="60" as="geometry" />
        </mxCell>
        <mxCell id="QZHb6bbb9g_fA5QFOH83-5" style="rounded=0;orthogonalLoop=1;jettySize=auto;html=1;entryX=-0.011;entryY=0.383;entryDx=0;entryDy=0;entryPerimeter=0;endArrow=none;endFill=0;" edge="1" parent="1" source="QZHb6bbb9g_fA5QFOH83-1" target="QZHb6bbb9g_fA5QFOH83-4">
          <mxGeometry relative="1" as="geometry" />
        </mxCell>
        <mxCell id="QZHb6bbb9g_fA5QFOH83-8" value="Mencari Kota/Daerah" style="ellipse;whiteSpace=wrap;html=1;" vertex="1" parent="1">
          <mxGeometry x="250" y="185" width="90" height="60" as="geometry" />
        </mxCell>
        <mxCell id="QZHb6bbb9g_fA5QFOH83-9" value="Memilih OBH/LBH" style="ellipse;whiteSpace=wrap;html=1;" vertex="1" parent="1">
          <mxGeometry x="250" y="270" width="90" height="60" as="geometry" />
        </mxCell>
        <mxCell id="QZHb6bbb9g_fA5QFOH83-10" value="&lt;font style=&quot;font-size: 11px;&quot;&gt;Registrasi pada OBH/LBH&lt;/font&gt;" style="ellipse;whiteSpace=wrap;html=1;" vertex="1" parent="1">
          <mxGeometry x="250" y="350" width="90" height="60" as="geometry" />
        </mxCell>
      </root>
    </mxGraphModel>
  </diagram>
</mxfile>
